<svg width="80" height="116" viewBox="0 0 80 116" fill="none" xmlns="http://www.w3.org/2000/svg">
<g opacity="0.1">
<path d="M25.433 33.3846C26.9745 34 28.5159 34.6154 30.0574 35.2307C30.3657 31.6923 30.9822 28.1538 32.3695 24.7692C33.4485 22.1538 34.6817 19.6923 36.2231 17.3846C37.4563 15.6923 38.6895 14 40.2309 12.6154C41.6182 14 43.0055 15.6923 44.2386 17.3846C45.7801 19.6923 47.1674 22.1538 48.0923 24.7692C49.3254 28.1538 50.0961 31.6923 50.4044 35.2307C51.9459 34.4615 53.4873 33.8461 55.0287 33.3846C56.416 32.9231 57.6492 32.4615 59.0365 32.1538C58.4199 27.3846 57.1868 22.7692 55.0287 18.4615L54.8746 18.1538C53.6414 15.6923 52.2542 13.2308 50.5586 11.0769L50.4044 10.7692C49.1713 9.07692 47.784 7.53846 46.3967 6.15384L40.2309 0L34.0651 6.15384C32.5237 7.6923 30.9822 9.38461 29.7491 11.2308C28.2076 13.3846 26.6662 15.6923 25.5872 18.1538C24.5082 20.4615 23.5833 22.7692 22.9667 25.2308C22.3502 27.5384 21.8877 29.8461 21.5794 32.1538C22.6584 32.4615 24.0457 32.9231 25.433 33.3846Z" fill="#333333"/>
<path d="M40.2307 41.8461C41.618 40.6154 43.1594 39.5385 44.7009 38.6154C44.7009 38.3077 44.7009 38 44.7009 37.6923C44.7009 32.4615 43.3136 27.2308 40.6931 22.7692L40.2307 22L39.7683 22.7692C37.4561 26.7692 36.0688 31.3846 35.7605 36.1538C35.7605 36.7692 35.7605 37.2308 35.7605 37.6923C35.7605 38 35.7605 38.3077 35.7605 38.6154C37.302 39.5385 38.8434 40.6154 40.2307 41.8461Z" fill="#333333"/>
<path d="M24.354 67.8461C24.8165 66 25.2789 64.1538 25.8955 62.4615C26.3579 61.2307 26.8203 60 27.2828 58.7692C24.0457 55.8461 20.038 53.8461 15.7219 52.6153L14.9512 52.4615L15.1054 53.2307C16.3385 57.5384 18.4965 61.6923 21.5794 65.0769C21.8877 65.5384 22.3502 65.8461 22.6584 66.1538C22.9667 66.4615 23.4292 66.923 23.8916 67.2307C24.0457 67.5384 24.1999 67.6923 24.354 67.8461Z" fill="#333333"/>
<path d="M19.8846 71.2308C19.4222 70.9231 19.1139 70.4616 18.8056 70.1539C18.4973 69.8462 18.189 69.5385 17.8807 69.2308C15.2603 66.4616 13.2564 63.2308 11.715 59.8462C10.636 57.3847 9.86523 54.7693 9.4028 52.1539C9.09451 50.1539 8.78622 48.1539 8.78622 46.1539C10.7901 46.1539 12.794 46.3078 14.7979 46.7693C17.4183 47.2308 20.0388 48.0001 22.5051 49.077C25.2797 50.3078 27.746 51.8462 30.0581 53.6924C31.5996 51.2308 33.2952 48.9232 35.1449 46.7693C31.4454 43.8462 27.4377 41.6924 22.9675 40.0001H22.5051C20.0388 39.077 17.4183 38.4616 14.7979 38.1539L14.1813 38.0001C12.1774 37.6924 10.3277 37.5385 8.32379 37.5385H0V45.8462C0 48.0001 0.154143 50.1539 0.462432 52.1539C0.77072 54.7693 1.54144 57.2308 2.31216 59.8462C3.08289 62.1539 4.1619 64.3078 5.2409 66.4616C7.24478 70.0001 9.55695 73.2308 12.4857 76.0001C15.4144 78.9231 18.6515 81.3847 22.1968 83.3847L22.9675 83.8462V80.3078C23.1216 77.077 22.0426 73.8462 19.8846 71.2308Z" fill="#333333"/>
<path d="M51.3294 116V80.4616C51.3294 79.5385 51.3294 78.7693 51.4835 77.8462C51.946 74 53.6415 70.3077 56.262 67.3846C56.7244 66.9231 57.0327 66.6154 57.4952 66.3077C57.8035 66 58.1117 65.6923 58.5742 65.2308C61.6571 61.8462 63.8151 57.8462 65.0482 53.3847L65.2024 52.6154L64.4317 52.7693C59.499 54 55.0289 56.6154 51.4835 60.1539C47.9382 63.6923 45.3178 68.1539 44.0846 73.077C43.468 75.3846 43.1597 77.6923 43.1597 80.1539V116H51.3294Z" fill="#333333"/>
<path d="M71.6762 37.6923C69.6723 37.6923 67.8226 37.8461 65.8187 38.1538H65.3563C62.7358 38.6153 60.1154 39.2307 57.6491 39.9999L57.3408 40.1538C51.3292 42.3076 45.9341 45.6922 41.4639 50.1538C36.9937 54.6153 33.4484 60.1538 31.4445 65.9999L31.2904 66.3076C30.3655 68.7691 29.749 71.3845 29.4407 73.9999L29.2865 74.6153C28.9782 76.4615 28.8241 78.3076 28.8241 80.1538V116H37.4562V80.4615C37.4562 78.4615 37.6103 76.3076 38.0728 74.3076C38.5352 71.6922 39.3059 69.0769 40.3849 66.6153C42.0805 62.7692 44.5468 59.2307 47.4756 56.3076C50.4043 53.3845 53.9496 50.923 57.8032 49.2307C60.2695 48.1538 62.89 47.3846 65.5104 46.923C67.5143 46.6153 69.5182 46.3076 71.5221 46.3076C71.5221 48.3076 71.3679 50.3076 70.9055 52.3076C70.4431 54.923 69.6723 57.5384 68.5933 59.9999C67.0519 63.3845 64.8939 66.6153 62.4275 69.3845C62.1193 69.6922 61.811 69.9999 61.5027 70.3076C61.1944 70.6153 60.8861 70.923 60.4237 71.3845C58.2657 73.9999 57.0325 77.2307 57.0325 80.6153V84.1538L57.8032 83.6922C61.3485 81.6922 64.7397 79.2307 67.5143 76.3076C70.2889 73.5384 72.7552 70.3076 74.7591 66.7692C75.8381 64.6153 76.9171 62.4615 77.6878 60.1538C78.6127 57.6922 79.2293 55.0769 79.5376 52.4615C79.8459 50.3076 80 48.1538 80 46.1538V37.8461H71.6762V37.6923Z" fill="#333333"/>
</g>
</svg>
