<?xml version="1.0" encoding="utf-8"?>
<!-- Generator: Adobe Illustrator 22.0.1, SVG Export Plug-In . SVG Version: 6.00 Build 0)  -->
<svg version="1.1" id="Layer_1" xmlns="http://www.w3.org/2000/svg" xmlns:xlink="http://www.w3.org/1999/xlink" x="0px" y="0px"
	 viewBox="0 0 512 512" style="enable-background:new 0 0 512 512;" xml:space="preserve">
<style type="text/css">
	.st0{fill:#3AA97C;}
</style>
<path class="st0" d="M361.7,206.3h-96.6c11.6-38.9,11.6-56.7,11.6-83.7v-1.5c0-31.7-26-57.5-57.9-57.5h-8.6
	c-11.4,0-25.1,8.3-28.3,22.2c-13.5,52.3-33.6,107-79.2,118.6H15c-8.3,0-15,6.7-15,15v205.2c0,8.3,6.7,15,15,15h87.2l47.1,15.5
	c16.3,5.4,33.1,8.1,49.9,8.1h134h0c11.6,0,22.5-4.5,30.8-12.7c8.3-8.2,12.8-19.1,12.8-30.7c0-5.3-1-10.4-2.7-15.1
	c18.1-5.3,31.3-21.9,31.3-41.6c0-10.8-4-20.8-10.6-28.4c6.6-7.6,10.6-17.5,10.6-28.4c0-10.8-4-20.8-10.6-28.4
	c6.6-7.6,10.6-17.5,10.6-28.4C405.3,225.7,385.8,206.3,361.7,206.3z M30,234.3h59.6v175.2H30V234.3z M361.7,293
	c7.5,0,13.6,6,13.6,13.4s-6.1,13.4-13.6,13.4c-8.3,0-15,6.7-15,15s6.7,15,15,15c7.5,0,13.6,6,13.6,13.4c0,7.4-6.1,13.4-13.6,13.4
	h-28.6c-8.3,0-15,6.7-15,15c0,8.3,6.7,15,15,15c7.5,0,13.6,6,13.6,13.4c0,3.6-1.4,6.9-3.9,9.4c-2.6,2.6-6,4-9.6,4h-134
	c-13.6,0-27.2-2.2-40.4-6.6l-39.1-12.9V230.5c23.8-8.6,43.8-26.3,59.5-52.8c15.8-26.7,25.3-58.9,31.9-84.2h7.9
	c15.4,0,27.9,12.4,27.9,27.5v1.5c0,30.1,0,45.2-16.4,93.9c-1.5,4.6-0.8,9.6,2,13.5c2.8,3.9,7.4,6.2,12.2,6.2h117.1
	c7.5,0,13.6,6,13.6,13.4s-6.1,13.4-13.6,13.4c-8.3,0-15,6.7-15,15S353.4,293,361.7,293z"/>
<path class="st0" d="M395.4,64.9h-17.1V48c0-8.3-6.7-15-15-15c-8.3,0-15,6.7-15,15v16.9h-17.1c-8.3,0-15,6.7-15,15
	c0,8.3,6.7,15,15,15h17.1v16.9c0,8.3,6.7,15,15,15c8.3,0,15-6.7,15-15V94.9h17.1c8.3,0,15-6.7,15-15
	C410.4,71.6,403.6,64.9,395.4,64.9z"/>
<path class="st0" d="M449.9,177h8.6v8.4c0,8.3,6.7,15,15,15c8.3,0,15-6.7,15-15V177h8.6c8.3,0,15-6.7,15-15c0-8.3-6.7-15-15-15h-8.6
	v-8.4c0-8.3-6.7-15-15-15c-8.3,0-15,6.7-15,15v8.4h-8.6c-8.3,0-15,6.7-15,15C434.9,170.2,441.6,177,449.9,177z"/>
<path class="st0" d="M497,424.6h-8.6v-8.4c0-8.3-6.7-15-15-15c-8.3,0-15,6.7-15,15v8.4h-8.6c-8.3,0-15,6.7-15,15c0,8.3,6.7,15,15,15
	h8.6v8.4c0,8.3,6.7,15,15,15c8.3,0,15-6.7,15-15v-8.4h8.6c8.3,0,15-6.7,15-15C512,431.3,505.3,424.6,497,424.6z"/>
</svg>
