<svg width="38" height="38" viewBox="0 0 38 38" fill="none" xmlns="http://www.w3.org/2000/svg">
<path d="M23.0198 15.6559L17.6079 20.7648L15.0106 18.0942C14.7227 17.7979 14.2486 17.7912 13.9524 18.0789C13.656 18.367 13.6492 18.8406 13.9372 19.1369L17.0523 22.333C17.3417 22.624 17.8094 22.634 18.1108 22.3553L24.0633 16.7438C24.2079 16.6075 24.2923 16.4193 24.2979 16.2209C24.3034 16.0225 24.2298 15.83 24.0932 15.6858C23.8035 15.3848 23.3259 15.3717 23.0198 15.6559Z" fill="#3AA97C" stroke="#3AA97C" stroke-width="0.998229"/>
<path d="M19.0043 7.7937C12.8192 7.7937 7.79004 12.8203 7.79004 19.002C7.79004 25.1841 12.8192 30.2107 19.0043 30.2107C25.1896 30.2107 30.2188 25.1841 30.2188 19.002C30.2188 12.8203 25.1896 7.7937 19.0043 7.7937ZM19.0043 28.7102C13.6449 28.7102 9.29129 24.3513 9.29129 19.002C9.29129 13.6528 13.6449 9.29417 19.0043 9.29417C24.3689 9.29417 28.7175 13.6405 28.7175 19.002C28.7175 24.3636 24.3689 28.7102 19.0043 28.7102Z" fill="#3AA97C" stroke="#3AA97C" stroke-width="0.998229"/>
<path d="M34.4367 14.8756L34.6844 10.4266C34.7017 10.128 34.5393 9.84754 34.2716 9.7139L30.3082 7.71084L28.3041 3.74956C28.1678 3.48434 27.8889 3.32286 27.591 3.33693L23.1321 3.57724L19.4165 1.12374C19.1661 0.958752 18.8415 0.958752 18.5908 1.12374L14.8752 3.57724L10.4242 3.3296C10.1252 3.31202 9.84485 3.47437 9.71115 3.74223L7.70674 7.70351L3.74367 9.70657C3.47802 9.84255 3.31675 10.1213 3.33083 10.4193L3.5783 14.8682L1.12381 18.5819C0.95873 18.8322 0.95873 19.1566 1.12381 19.4071L3.57097 23.1281L3.3232 27.577C3.3059 27.8757 3.46805 28.1561 3.73605 28.2898L7.69941 30.2928L9.70352 34.2541C9.83958 34.5196 10.1184 34.6808 10.4166 34.6667L14.8679 34.4191L18.5835 36.8723C18.8324 37.0426 19.1602 37.0426 19.4092 36.8723L23.1248 34.4191L27.576 34.6667C27.8748 34.684 28.1551 34.5217 28.2891 34.2541L30.2933 30.2928L34.2566 28.2898C34.522 28.1535 34.6835 27.8751 34.6695 27.577L34.4217 23.1281L36.8762 19.4145C37.0413 19.1642 37.0413 18.8395 36.8762 18.5892L34.4367 14.8756ZM33.0404 22.513C32.9489 22.6472 32.9064 22.8087 32.9204 22.9707L33.153 27.1794L29.4075 29.0699C29.2647 29.1414 29.1488 29.2574 29.0773 29.4002L27.1855 33.1437L22.9747 32.9113C22.8134 32.9054 22.6542 32.9471 22.5167 33.0312L19.0037 35.3496L15.491 33.0312C15.369 32.9488 15.2253 32.9043 15.0781 32.9037H15.0406L10.8295 33.1364L8.93794 29.3925C8.8664 29.2498 8.75058 29.1341 8.60749 29.0626L4.85436 27.1794L5.08717 22.9707C5.09304 22.8096 5.05111 22.6504 4.96696 22.513L2.64764 19.0018L4.96696 15.4907C5.05873 15.3568 5.10125 15.195 5.08717 15.0332L4.85436 10.8243L8.60016 8.93378C8.74296 8.86227 8.85878 8.74651 8.93032 8.60379L10.8218 4.85996L15.033 5.09265C15.1939 5.09822 15.3532 5.0566 15.491 4.97249L19.0037 2.65439L22.5167 4.97249C22.6509 5.06422 22.8128 5.10671 22.9747 5.09265L27.1855 4.85996L29.0773 8.60379C29.1488 8.74651 29.2647 8.86227 29.4075 8.93378L33.153 10.8243L32.9204 15.0332C32.9146 15.1941 32.9565 15.3532 33.0404 15.4907L35.36 19.0018L33.0404 22.513Z" fill="#3AA97C" stroke="#3AA97C" stroke-width="0.998229"/>
</svg>
