<?xml version="1.0" encoding="utf-8"?>
<!-- Generator: Adobe Illustrator 22.0.1, SVG Export Plug-In . SVG Version: 6.00 Build 0)  -->
<svg version="1.1" id="Layer_1" xmlns="http://www.w3.org/2000/svg" xmlns:xlink="http://www.w3.org/1999/xlink" x="0px" y="0px"
	 viewBox="0 0 512 512" style="enable-background:new 0 0 512 512;" xml:space="preserve">
<style type="text/css">
	.st0{fill:#3AA97C;}
</style>
<path class="st0" d="M512,315.3V196.7h-52c-4.3-14.9-10.3-29.3-17.8-42.9l36.8-36.8L395.1,33l-36.8,36.8
	c-13.7-7.5-28-13.5-42.9-17.8V0H196.7v52c-14.9,4.3-29.3,10.3-42.9,17.8L116.9,33L33,116.9l36.8,36.8c-7.5,13.7-13.5,28-17.8,42.9H0
	v118.7h52c4.3,14.9,10.3,29.3,17.8,42.9L33,395.1l83.9,83.9l36.8-36.8c13.6,7.5,28,13.5,42.9,17.8l0,52h118.7v-52
	c14.9-4.3,29.3-10.3,42.9-17.8l36.8,36.8l83.9-83.9l-36.8-36.8c7.5-13.6,13.5-28,17.8-42.9H512z M285.4,338.7V482h-58.7l0-143.4
	l-8.5-4.1c-30.2-14.5-49.7-45.5-49.7-79c0-27.2,12.4-52.1,32.9-68.5V258l54.6,32.8l54.6-32.8v-70.8c20.5,16.3,32.9,41.3,32.9,68.5
	c0,33.5-19.5,64.5-49.7,79L285.4,338.7z M436.6,395.1l-41.5,41.5l-32.2-32.2l-10.1,6.3c-11.8,7.4-24.3,13.4-37.4,17.9v-71.5
	c16-9.4,29.6-22.4,39.6-38.1c12.1-18.9,18.6-40.9,18.6-63.4c0-47.5-28.3-90.1-72.1-108.4l-20.8-8.7V241L256,255.8L231.4,241V138.4
	l-20.8,8.7c-43.8,18.4-72.1,60.9-72.1,108.4c0,22.6,6.4,44.5,18.6,63.4c10.1,15.7,23.7,28.7,39.6,38.1l0,71.5
	c-13.1-4.5-25.6-10.5-37.4-17.9l-10.1-6.3l-32.2,32.2l-41.5-41.5l32.2-32.2l-6.3-10.1c-10.8-17.2-18.6-36-23.1-55.7l-2.7-11.6H30
	v-58.7h45.6l2.7-11.6c4.5-19.7,12.3-38.5,23.1-55.7l6.3-10.1l-32.2-32.2l41.5-41.5l32.2,32.2l10.1-6.3c17.2-10.8,36-18.6,55.7-23.1
	l11.6-2.7V30h58.7v45.6l11.6,2.7c19.7,4.5,38.5,12.3,55.7,23.1l10.1,6.3l32.2-32.2l41.5,41.5l-32.2,32.2l6.3,10.1
	c10.8,17.2,18.6,36,23.1,55.7l2.7,11.6H482v58.7h-45.6l-2.7,11.6c-4.5,19.7-12.3,38.5-23.1,55.7l-6.3,10.1L436.6,395.1z"/>
</svg>
