<svg width="42" height="34" viewBox="0 0 42 34" fill="none" xmlns="http://www.w3.org/2000/svg">
<path d="M9.71429 14.571C4.35524 14.571 0 18.9262 0 24.2853C0 29.6443 4.35524 33.9996 9.71429 33.9996C15.0733 33.9996 19.4286 29.6443 19.4286 24.2853C19.4286 18.9262 15.0733 14.571 9.71429 14.571ZM9.71429 31.571C5.69905 31.571 2.42857 28.3005 2.42857 24.2853C2.42857 20.27 5.69905 16.9996 9.71429 16.9996C13.7295 16.9996 17 20.27 17 24.2853C17 28.3005 13.7295 31.571 9.71429 31.571Z" fill="#3AA97C"/>
<path d="M9.71317 20.6433C7.70555 20.6433 6.07031 22.2785 6.07031 24.2862C6.07031 26.2938 7.70555 27.929 9.71317 27.929C11.7208 27.929 13.356 26.2938 13.356 24.2862C13.356 22.2785 11.7208 20.6433 9.71317 20.6433ZM9.71317 25.5005C9.04127 25.5005 8.49888 24.9581 8.49888 24.2862C8.49888 23.6143 9.04127 23.0719 9.71317 23.0719C10.3851 23.0719 10.9275 23.6143 10.9275 24.2862C10.9275 24.9581 10.3851 25.5005 9.71317 25.5005Z" fill="#3AA97C"/>
<path d="M39.0204 21.2905V17C39.0204 14.3205 36.8428 12.1429 34.1632 12.1429H31.7347V6.07143C31.7347 5.39952 32.277 4.85714 32.949 4.85714V2.42857C30.9413 2.42857 29.3061 4.06381 29.3061 6.07143V12.1429H23.9794L21.0651 2.42857H23.0728V0H3.64419V2.42857H6.07276V10.1757C4.02467 10.71 2.08991 11.6814 0.438477 13.0414L1.98467 14.9114C4.15419 13.1305 6.89848 12.1429 9.71562 12.1429C16.4104 12.1429 21.8585 17.591 21.8585 24.2857V27.9286H26.9828C27.5656 31.369 30.5609 34 34.1632 34C38.1785 34 41.449 30.7295 41.449 26.7143C41.449 24.561 40.5099 22.6262 39.0204 21.2905ZM8.50133 9.76286V2.42857H18.5232L21.4375 12.1429H17.7542C15.447 10.6129 12.6785 9.71429 9.70752 9.71429C9.31086 9.71429 8.90609 9.73048 8.50133 9.76286ZM20.5632 14.5714H34.1632C35.499 14.5714 36.5918 15.6643 36.5918 17V19.8414C35.8309 19.5743 35.0132 19.4286 34.1632 19.4286H23.4532C22.8137 17.6233 21.8261 15.9719 20.5632 14.5714ZM24.0847 21.8571H28.7394C27.8409 22.861 27.2175 24.1157 26.9828 25.5H24.287V24.2857C24.287 23.46 24.2142 22.6505 24.0847 21.8571ZM34.1632 31.5714C31.4837 31.5714 29.3061 29.3938 29.3061 26.7143C29.3061 24.0348 31.4837 21.8571 34.1632 21.8571C36.8428 21.8571 39.0204 24.0348 39.0204 26.7143C39.0204 29.3938 36.8428 31.5714 34.1632 31.5714Z" fill="#3AA97C"/>
<path d="M35.3768 26.7143C35.3768 27.3862 34.8344 27.9286 34.1625 27.9286C33.4906 27.9286 32.9482 27.3862 32.9482 26.7143C32.9482 26.0424 33.4906 25.5 34.1625 25.5C34.8344 25.5 35.3768 26.0424 35.3768 26.7143Z" fill="#3AA97C"/>
</svg>
