<svg width="18" height="18" viewBox="0 0 18 18" fill="none" xmlns="http://www.w3.org/2000/svg">
<path d="M16.397 8.39697C16.0639 8.39697 15.794 8.66691 15.794 9C15.794 12.7463 12.7463 15.794 9 15.794C5.25387 15.794 2.20603 12.7463 2.20603 9C2.20603 5.25387 5.25387 2.20603 9 2.20603C9.33306 2.20603 9.60303 1.93609 9.60303 1.60303C9.60303 1.26994 9.33306 1 9 1C4.58875 1 1 4.58875 1 9C1 13.4111 4.58875 17 9 17C13.4111 17 17 13.4111 17 9C17 8.66694 16.7301 8.39697 16.397 8.39697Z" fill="#3AA97C" stroke="#3AA97C" stroke-width="0.2"/>
<path d="M16.5423 3.18737C16.307 2.95159 15.9251 2.95118 15.6897 3.18637L8.45552 10.4014L5.84546 7.56665C5.61993 7.32184 5.23862 7.30596 4.9934 7.53146C4.74837 7.75699 4.73268 8.13849 4.95821 8.38352L7.9934 11.6798C8.10455 11.8006 8.26012 11.8708 8.42415 11.8742C8.42855 11.8744 8.4328 11.8744 8.43702 11.8744C8.59643 11.8744 8.74977 11.8111 8.86274 11.6985L16.5411 4.04021C16.7771 3.80506 16.7775 3.42315 16.5423 3.18737Z" fill="#3AA97C" stroke="#3AA97C" stroke-width="0.2"/>
</svg>
