<svg width="129" height="80" viewBox="0 0 129 80" fill="none" xmlns="http://www.w3.org/2000/svg">
<path d="M54.7289 39.6715L57.5479 32.521H60.0918L62.842 39.6715H60.2293L59.8855 38.6402H57.6166L57.2728 39.6715H54.7289ZM58.2354 36.8526H59.4042L58.7854 35.065L58.2354 36.8526ZM63.392 39.6715V32.5898H68.1361V34.5837H65.7297V39.6715H63.392ZM68.8924 32.5898H71.9176C72.3301 32.5898 72.6739 32.6585 73.0177 32.7273C73.3615 32.7961 73.6365 32.9336 73.9115 33.1398C74.1865 33.3461 74.3928 33.5524 74.5991 33.8961C74.7366 34.2399 74.8741 34.5837 74.8741 35.065C74.8741 35.4775 74.8053 35.89 74.5991 36.165C74.4615 36.5088 74.1865 36.7151 73.9115 36.9213C73.6365 37.1276 73.2927 37.2651 73.0177 37.3339C72.6739 37.4026 72.3301 37.4714 71.9176 37.4714H71.2301V39.7403H68.8924V32.5898ZM71.7801 35.615C71.9864 35.615 72.1239 35.5462 72.2614 35.4775C72.3989 35.4087 72.4676 35.2025 72.4676 35.065C72.4676 34.7212 72.1926 34.5149 71.7113 34.5149H71.2301V35.615H71.7801ZM82.2308 38.8465C81.4745 39.534 80.512 39.8778 79.4119 39.8778C78.243 39.8778 77.3492 39.534 76.5929 38.8465C75.8366 38.1589 75.4929 37.1964 75.4929 36.0963C75.4929 34.9962 75.8366 34.1024 76.5929 33.4148C77.3492 32.7273 78.3118 32.3835 79.4119 32.3835C80.5807 32.3835 81.4745 32.7273 82.2308 33.4148C82.9871 34.1024 83.3309 34.9962 83.3309 36.0963C83.3309 37.2651 82.9871 38.1589 82.2308 38.8465ZM79.4119 37.6776C79.8244 37.6776 80.1682 37.5401 80.4432 37.1964C80.7182 36.9213 80.8557 36.5088 80.8557 36.0275C80.8557 35.5462 80.7182 35.2025 80.4432 34.9274C80.1682 34.6524 79.8244 34.5149 79.4119 34.5149C78.9994 34.5149 78.6556 34.6524 78.3806 34.9274C78.1055 35.2025 77.968 35.5462 77.968 36.0275C77.968 36.5088 78.1055 36.8526 78.3806 37.1964C78.6556 37.5401 78.9994 37.6776 79.4119 37.6776ZM90.4127 39.8778C89.3126 39.8778 88.4188 39.534 87.6625 38.8465C86.9062 38.1589 86.5624 37.2651 86.5624 36.165C86.5624 35.065 86.9062 34.1711 87.6625 33.4148C88.4188 32.7273 89.3126 32.3835 90.4127 32.3835C90.9627 32.3835 91.444 32.4523 91.994 32.6585C92.4753 32.8648 92.8878 33.0711 93.2316 33.3461L91.7878 35.1337C91.5127 34.7899 91.1002 34.5837 90.6189 34.5837C90.2064 34.5837 89.8626 34.7212 89.5876 34.9962C89.3126 35.2712 89.1751 35.6838 89.1751 36.0963C89.1751 36.5776 89.3126 36.9213 89.5876 37.1964C89.8626 37.4714 90.2064 37.6089 90.6189 37.6089C91.169 37.6089 91.5127 37.4026 91.7878 37.0588L93.2316 38.8465C92.4753 39.534 91.5815 39.8778 90.4127 39.8778ZM93.8504 32.5898H98.732V34.5837H96.1193V35.2025H98.5945V37.0588H96.1193V37.7464H98.9382V39.7403H93.8504V32.5898ZM99.9008 32.5898H102.926C103.339 32.5898 103.682 32.6585 104.026 32.7273C104.37 32.7961 104.645 32.9336 104.92 33.1398C105.195 33.3461 105.401 33.5524 105.607 33.8961C105.745 34.2399 105.882 34.5837 105.882 35.065C105.882 35.4775 105.814 35.89 105.607 36.165C105.47 36.5088 105.195 36.7151 104.92 36.9213C104.645 37.1276 104.301 37.2651 104.026 37.3339C103.682 37.4026 103.339 37.4714 102.926 37.4714H102.238V39.7403H99.9008V32.5898ZM102.789 35.615C102.995 35.615 103.132 35.5462 103.27 35.4775C103.407 35.4087 103.476 35.2025 103.476 35.065C103.476 34.7212 103.201 34.5149 102.72 34.5149H102.238V35.615H102.789ZM106.776 39.6715V32.5898H109.733C111.589 32.5898 112.483 33.2086 112.483 34.4462C112.483 35.2025 112.139 35.6838 111.452 35.9588C111.795 36.0275 112.139 36.2338 112.414 36.5088C112.689 36.7838 112.827 37.1276 112.827 37.5401C112.827 37.8839 112.758 38.2277 112.62 38.5027C112.483 38.7777 112.277 38.984 112.002 39.1215C111.727 39.259 111.452 39.3965 111.108 39.4653C110.764 39.534 110.42 39.6028 110.077 39.6028H106.776V39.6715ZM109.045 37.8152H109.733C109.939 37.8152 110.077 37.7464 110.214 37.6776C110.352 37.6089 110.352 37.4714 110.352 37.3339C110.352 37.1964 110.283 37.0588 110.145 36.9901C110.008 36.9213 109.802 36.8526 109.664 36.8526H109.045V37.8152ZM109.664 35.34C110.077 35.34 110.214 35.2025 110.214 34.8587C110.214 34.5837 110.008 34.4462 109.595 34.4462H108.976V35.34H109.664ZM113.789 32.5898H116.058V36.3713H116.127L118.19 32.5898H120.665V39.7403H118.396V36.165H118.327L116.264 39.7403H113.789V32.5898ZM125.546 39.8778C124.446 39.8778 123.552 39.534 122.796 38.8465C122.04 38.1589 121.696 37.2651 121.696 36.165C121.696 35.065 122.04 34.1711 122.796 33.4148C123.552 32.7273 124.446 32.3835 125.546 32.3835C126.096 32.3835 126.578 32.4523 127.128 32.6585C127.609 32.8648 128.022 33.0711 128.365 33.3461L126.921 35.1337C126.646 34.7899 126.234 34.5837 125.753 34.5837C125.34 34.5837 124.996 34.7212 124.721 34.9962C124.446 35.2712 124.309 35.6838 124.309 36.0963C124.309 36.5776 124.446 36.9213 124.721 37.1964C124.996 37.4714 125.34 37.6089 125.753 37.6089C126.303 37.6089 126.646 37.4026 126.921 37.0588L128.365 38.8465C127.609 39.534 126.715 39.8778 125.546 39.8778Z" fill="#ACE691"/>
<path d="M22.6892 27.5019C23.308 26.8144 24.1331 26.4706 24.9581 26.4706L25.2332 26.7456C24.9581 27.2957 24.7519 27.9145 24.4769 28.5333L24.4081 28.6708C24.3393 28.9458 24.2706 29.152 24.1331 29.4271C24.0643 29.3583 23.9956 29.2896 23.9268 29.2208C23.7893 29.0833 23.7206 29.0145 23.583 28.877C23.308 28.4645 22.9643 27.9832 22.6892 27.5019ZM34.9276 29.7708L34.9963 29.8396C35.6151 30.3896 36.4402 30.6647 37.1965 30.8022H37.2653C36.4402 32.1085 35.9589 33.5524 35.8214 35.065C34.9963 34.7899 34.1025 34.5149 33.3462 34.0336C33.3462 33.8961 33.415 33.7586 33.415 33.6899C33.6212 32.7273 33.8963 31.8335 34.24 30.9397C34.4463 30.5959 34.6526 30.1834 34.9276 29.7708ZM46.2034 35.7525C46.6847 36.5088 46.7534 37.4026 46.6847 38.2964C46.6159 38.5715 46.6159 38.8465 46.5472 39.1215C46.6847 39.1903 46.8909 39.259 47.0284 39.3965C48.541 40.2216 50.3974 41.2529 51.7038 42.353C52.6663 43.2468 53.4914 44.2781 53.4226 45.6532C53.3539 46.6158 52.9414 47.3033 52.5976 48.0596C53.6289 48.2659 54.8665 48.4034 55.6228 48.5409C58.5793 49.0909 60.2294 46.6845 62.842 45.7907C63.6671 45.5157 64.4922 45.4469 65.3172 45.5157C65.5922 45.5157 65.7985 45.5157 66.0735 45.4469C66.6236 45.1719 67.1049 44.7594 67.6549 44.4844C68.8237 43.8656 70.1301 43.5218 71.4364 43.3155C73.7741 42.9718 76.5243 42.903 78.7244 43.7281C80.4433 44.3469 82.0246 45.6532 82.0246 47.6471C82.0246 49.916 80.0308 51.2911 78.1056 51.8411C78.2431 52.1849 78.5181 52.5974 78.5869 52.8725C79.0682 54.0413 79.3432 55.1414 79.0682 56.379C78.5181 59.3354 75.4242 60.2292 72.7427 60.023C71.8489 59.9542 71.0926 59.9542 70.2676 60.2292C69.0987 60.6418 68.2737 60.9168 67.0361 61.0543C65.386 61.2605 63.5984 61.1918 62.6358 59.6104C62.4983 59.3354 62.3608 59.0604 62.2233 58.7854C62.2233 58.7166 62.1545 58.6479 62.1545 58.5791C61.9482 58.4416 61.3982 58.3728 60.9857 58.3728L60.5044 58.5103C59.6793 58.8541 58.3042 60.573 57.8229 61.2605C56.9979 62.4294 56.1041 63.7357 55.4853 65.0421C54.729 66.4859 53.6977 67.5172 52.1851 68.0673C48.541 69.2361 45.5158 66.6922 42.5594 70.3362C41.253 71.9175 40.0842 73.5677 38.8466 75.2178C37.8153 76.5929 36.6465 77.968 35.1339 78.8618C32.0399 80.7182 28.1896 79.9619 24.8894 78.9993C22.0704 78.243 17.6014 76.6616 17.8076 72.9489C17.8764 71.9863 18.2202 71.1612 18.7015 70.3362C18.9077 69.9237 19.5265 69.1674 19.7328 68.7548C20.0078 67.1047 20.5578 65.5233 20.8329 63.8732C21.0391 62.8419 21.3141 60.7105 20.6266 59.8167C20.4203 59.6104 20.2141 59.4729 19.939 59.3354C19.1827 59.1291 18.3577 58.9229 17.6014 58.8541C17.0513 58.8541 16.5013 58.8541 15.9513 58.7854C15.0575 58.6479 14.3699 58.1666 13.7511 57.5478C12.8573 56.7227 12.0322 55.6914 11.2072 54.7976C11.0697 54.6601 10.7259 54.2476 10.5196 54.11C10.3134 54.1788 10.0383 54.3163 9.90084 54.3851C9.28205 54.6601 8.73201 54.9351 8.11321 55.1414C4.81298 56.1039 0.687693 54.2476 0.0689001 50.6723C-0.0686095 49.7097 0.0689001 48.8159 0.481429 47.9221C1.51275 45.7907 6.87563 42.628 8.93827 41.3904C10.5196 40.4278 12.1697 39.534 13.8199 38.6402C14.9199 38.0214 16.0888 37.4026 17.1889 36.8526C17.3264 36.7838 17.4639 36.7151 17.5326 36.7151C18.839 37.9527 20.2828 38.984 21.8642 39.8778C20.9704 40.2216 20.0078 40.5653 19.1827 40.9091C18.1514 41.3904 17.1889 42.0092 16.1575 42.5592C14.6449 43.453 13.0636 44.3469 11.551 45.3094C10.0383 46.272 8.52574 47.2346 7.08189 48.2659C6.60061 48.6097 5.50053 49.366 5.01925 49.916C5.15676 50.0535 5.36302 50.191 5.50053 50.2598C5.8443 50.3973 6.25683 50.466 6.60061 50.3285C7.90695 49.916 9.14454 49.0909 10.5884 49.0222C12.4448 48.9534 13.8886 50.1223 15.0575 51.4974C15.6075 52.1162 16.1575 52.7349 16.7763 53.3537C16.9138 53.4912 17.1201 53.6975 17.2576 53.835C17.6014 53.835 17.9452 53.7663 18.3577 53.835C19.389 53.9038 20.4203 54.11 21.4516 54.3851C22.8955 54.7976 24.1331 55.6226 24.9581 56.8602C27.0895 59.9542 26.3332 64.6983 25.3019 68.0673C25.1644 68.4798 25.0957 68.8923 25.0269 69.3736C24.9581 69.7174 24.9581 69.9924 24.8894 70.2674C24.6831 71.1612 24.0643 71.9863 23.5143 72.7426C24.4769 73.3614 26.6083 73.9802 27.3646 74.1177C28.3959 74.324 30.9398 74.7365 31.9024 74.324C33.7588 73.5676 35.3401 70.8175 36.4402 69.2361C38.2278 66.6234 40.153 64.0795 43.3157 63.2544C44.9658 62.7732 46.5472 62.6356 48.266 62.7732C48.6098 62.7732 49.7786 62.9794 50.1912 62.9107C50.2599 62.7732 50.3974 62.5669 50.4662 62.4981C51.9788 59.6104 54.5915 55.4164 57.8917 53.6975C56.8604 53.835 55.7603 53.835 54.6602 53.56C53.3539 53.285 51.9788 53.0787 50.6724 52.8037C49.5036 52.5974 48.266 52.1849 47.5785 51.0848C46.6159 49.4347 47.716 47.3033 48.4723 45.7907C48.1285 45.3782 46.9597 44.7594 46.5472 44.5531C45.4471 44.0031 43.8657 43.3155 42.9719 42.4217C42.4906 42.0779 42.0781 41.5967 41.8718 41.0466C41.6656 40.5653 41.6656 40.0841 41.7343 39.6028C43.2469 38.709 44.5533 37.6089 45.7909 36.3713C45.9284 36.0963 46.0659 35.89 46.2034 35.7525ZM60.6419 52.8037C60.7106 52.8037 60.7794 52.8037 60.8482 52.8037C62.4983 52.7349 64.3547 52.9412 65.661 54.0413C66.1423 54.4538 66.4173 54.8663 66.6923 55.4164C66.6923 55.4851 66.7611 55.4851 66.7611 55.5539L68.1362 55.2101C68.755 55.0039 69.2362 54.8663 69.7863 54.7288V54.4538L71.6427 54.5226C72.2615 54.5226 72.8115 54.5913 73.4303 54.5913C73.2928 54.1788 73.1553 53.6975 73.0178 53.285C72.4677 51.5661 72.6052 49.7785 73.7741 48.4721C73.6366 48.4721 73.499 48.4721 73.4303 48.4721C72.3302 48.5409 70.4738 48.8159 69.5113 49.2972C67.3111 50.3285 67.6549 50.9473 64.8359 50.6723C64.7672 50.6723 64.7672 50.6723 64.6984 50.6723C64.0109 50.7411 62.2233 51.9786 61.6045 52.3224C61.1919 52.4599 60.9169 52.6662 60.6419 52.8037Z" fill="#ACE691"/>
<path d="M56.9979 13.9572H61.9482V19.5264L65.936 13.9572H71.8489L66.211 20.8327L72.1239 29.0145H65.936L61.9482 23.0329H61.8795V29.0145H56.9979V13.9572ZM73.224 28.9458V13.9572H79.687C80.512 13.9572 81.2683 14.026 81.9559 14.2322C82.6434 14.3698 83.2622 14.6448 83.881 15.0573C84.4998 15.4011 84.9811 15.9511 85.3249 16.6387C85.6686 17.3262 85.8749 18.1513 85.8749 19.0451C85.8749 19.9389 85.6686 20.6952 85.3249 21.3827C84.9811 22.0703 84.4998 22.6203 83.9498 22.9641C83.331 23.3766 82.7122 23.6517 82.0246 23.8579C81.3371 24.0642 80.5808 24.1329 79.7557 24.1329H78.3119V28.9458H73.224ZM78.2431 20.2827H79.2744C79.687 20.2827 80.0307 20.1452 80.3745 19.9389C80.6495 19.7326 80.787 19.3889 80.787 18.9763C80.787 18.22 80.3058 17.8075 79.2744 17.8075H78.2431V20.2827ZM87.7313 13.9572H92.7504V18.7701H94.1942C95.0193 18.7701 95.7756 18.8388 96.4632 19.0451C97.1507 19.1826 97.7695 19.4576 98.3883 19.8701C99.0071 20.2139 99.4884 20.764 99.8321 21.4515C100.176 22.1391 100.313 22.9641 100.313 23.8579C100.313 25.0268 100.038 25.9893 99.4196 26.8144C98.8008 27.6394 98.0445 28.1895 97.1507 28.5333C96.2569 28.877 95.2943 29.0145 94.1942 29.0145H87.7313V13.9572ZM92.7504 25.0268H93.7817C94.1942 25.0268 94.538 24.958 94.8818 24.7517C95.1568 24.5455 95.2943 24.2017 95.2943 23.7892C95.2943 23.0329 94.813 22.6203 93.7817 22.6203H92.7504V25.0268ZM101.757 13.9572H106.776V29.0145H101.757V13.9572ZM109.595 13.9572H116.196L118.946 22.0703H119.083L121.421 13.9572H128.228V29.0145H123.346L123.484 20.5577H123.346L120.527 29.0145H116.952L114.202 20.5577H114.064L114.271 29.0145H109.595V13.9572Z" fill="#ACE691"/>
<path d="M24.8206 14.9198C25.5081 15.1948 26.1957 15.4698 26.8832 15.7449C27.0208 14.1635 27.2958 12.5821 27.9146 11.0695C28.3958 9.90069 28.9459 8.80062 29.6334 7.76929C30.1835 7.01299 30.7335 6.25669 31.4211 5.63789C32.0399 6.25669 32.6586 7.01299 33.2087 7.76929C33.8962 8.80062 34.515 9.90069 34.9276 11.0695C35.4776 12.5821 35.8214 14.1635 35.9589 15.7449C36.6464 15.4011 37.334 15.1261 38.0215 14.9198C38.6403 14.7135 39.1904 14.5073 39.8092 14.3698C39.5341 12.2384 38.9841 10.1757 38.0215 8.25058L37.9528 8.11307C37.4027 7.01299 36.7839 5.91291 36.0276 4.95035L35.9589 4.81284C35.4088 4.05653 34.7901 3.36899 34.1713 2.75019L31.4211 0L28.6709 2.75019C27.9833 3.43774 27.2958 4.19404 26.7457 5.0191C26.0582 5.98167 25.3706 7.01299 24.8894 8.11307C24.4081 9.14439 23.9955 10.1757 23.7205 11.2758C23.4455 12.3071 23.2392 13.3384 23.1017 14.3698C23.583 14.5073 24.2018 14.7135 24.8206 14.9198Z" fill="#ACE691"/>
<path d="M31.4211 18.7013C32.0399 18.1513 32.7274 17.67 33.415 17.2575C33.415 17.1199 33.415 16.9824 33.415 16.8449C33.415 14.5073 32.7962 12.1696 31.6274 10.1757L31.4211 9.83194L31.2148 10.1757C30.1835 11.9633 29.5647 14.026 29.4272 16.1574C29.4272 16.4324 29.4272 16.6387 29.4272 16.8449C29.4272 16.9824 29.4272 17.1199 29.4272 17.2575C30.1147 17.67 30.8023 18.1513 31.4211 18.7013Z" fill="#ACE691"/>
<path d="M24.3393 30.3209C24.5456 29.4958 24.7519 28.6708 25.0269 27.9145C25.2331 27.3644 25.4394 26.8144 25.6457 26.2643C24.2018 24.958 22.4142 24.0642 20.4891 23.5141L20.1453 23.4454L20.214 23.7892C20.7641 25.7143 21.7266 27.5707 23.1017 29.0833C23.2393 29.2896 23.4455 29.4271 23.583 29.5646C23.7205 29.7021 23.9268 29.9083 24.1331 30.0459C24.2018 30.1834 24.2706 30.2521 24.3393 30.3209Z" fill="#ACE691"/>
<path d="M22.3453 31.8335C22.1391 31.696 22.0016 31.4897 21.8641 31.3522C21.7266 31.2147 21.589 31.0772 21.4515 30.9397C20.2827 29.7021 19.3889 28.2582 18.7013 26.7456C18.2201 25.6456 17.8763 24.4767 17.67 23.3079C17.5325 22.4141 17.395 21.5203 17.395 20.6264C18.2888 20.6264 19.1826 20.6952 20.0764 20.9015C21.2453 21.1077 22.4141 21.4515 23.5142 21.9328C24.7518 22.4828 25.8518 23.1704 26.8832 23.9954C27.5707 22.8954 28.327 21.864 29.1521 20.9015C27.502 19.5951 25.7143 18.6326 23.7204 17.8763H23.5142C22.4141 17.4637 21.2453 17.1887 20.0764 17.0512L19.8014 16.9824C18.9076 16.8449 18.0825 16.7762 17.1887 16.7762H13.476V20.4889C13.476 21.4515 13.5447 22.4141 13.6822 23.3079C13.8197 24.4767 14.1635 25.5768 14.5073 26.7456C14.8511 27.777 15.3324 28.7395 15.8136 29.7021C16.7075 31.2834 17.7388 32.7273 19.0451 33.9649C20.3515 35.2712 21.7953 36.3713 23.3767 37.2651L23.7204 37.4714V35.89C23.7892 34.4462 23.3079 33.0023 22.3453 31.8335Z" fill="#ACE691"/>
<path d="M36.3714 51.8411V35.9588C36.3714 35.5462 36.3714 35.2025 36.4402 34.7899C36.6464 33.0711 37.4027 31.421 38.5716 30.1146C38.7778 29.9083 38.9153 29.7708 39.1216 29.6333C39.2591 29.4958 39.3966 29.3583 39.6029 29.152C40.978 27.6394 41.9405 25.8518 42.4906 23.8579L42.5593 23.5142L42.2156 23.5829C40.0154 24.1329 38.0215 25.3018 36.4402 26.8831C34.8588 28.4645 33.69 30.4584 33.1399 32.6585C32.8649 33.6899 32.7274 34.7212 32.7274 35.8213V51.8411H36.3714Z" fill="#ACE691"/>
<path d="M45.4471 16.8449C44.5533 16.8449 43.7282 16.9137 42.8344 17.0512H42.6282C41.4593 17.2575 40.2905 17.5325 39.1904 17.8763L39.0529 17.945C36.3715 18.9076 33.965 20.4202 31.9712 22.4141C29.9773 24.408 28.3959 26.8831 27.5021 29.4958L27.4333 29.6333C27.0208 30.7334 26.7458 31.9022 26.6083 33.0711L26.5395 33.3461C26.402 34.1711 26.3333 34.9962 26.3333 35.8213V51.8411H30.1835V35.9588C30.1835 35.065 30.2523 34.1024 30.4585 33.2086C30.6648 32.0397 31.0086 30.8709 31.4899 29.7708C32.2462 28.052 33.3463 26.4706 34.6526 25.1643C35.9589 23.8579 37.5403 22.7578 39.2592 22.0015C40.3592 21.5203 41.5281 21.1765 42.6969 20.9702C43.5907 20.8327 44.4845 20.6952 45.3783 20.6952C45.3783 21.589 45.3096 22.4828 45.1033 23.3766C44.8971 24.5455 44.5533 25.7143 44.072 26.8144C43.3845 28.327 42.4219 29.7708 41.3218 31.0084C41.1843 31.1459 41.0468 31.2834 40.9093 31.421C40.7718 31.5585 40.6343 31.696 40.428 31.9022C39.4654 33.0711 38.9154 34.5149 38.9154 36.0275V37.6089L39.2592 37.4026C40.8405 36.5088 42.3531 35.4087 43.5907 34.1024C44.8283 32.8648 45.9284 31.421 46.8222 29.8396C47.3035 28.877 47.7848 27.9145 48.1285 26.8831C48.5411 25.7831 48.8161 24.6142 48.9536 23.4454C49.0911 22.4828 49.1599 21.5203 49.1599 20.6264V16.9137H45.4471V16.8449Z" fill="#ACE691"/>
</svg>
