<svg width="46" height="52" viewBox="0 0 46 52" fill="none" xmlns="http://www.w3.org/2000/svg">
<circle cx="23" cy="23" r="23" fill="white"/>
<path d="M39.2601 6.73588C34.9164 2.3922 29.1411 0 22.998 0C16.855 0 11.0797 2.3922 6.73598 6.73588C2.3922 11.0798 0 16.855 0 22.998C0 33.8355 7.57653 43.1919 18.102 45.4719L22.998 52L27.8942 45.4718C38.4196 43.1917 45.9961 33.8355 45.9961 22.998C45.9961 16.855 43.6039 11.0798 39.2601 6.73588ZM22.998 6.00391C32.3126 6.00391 39.8904 13.5819 39.8904 22.8963C39.8904 32.2107 32.3126 39.7887 22.998 39.7887C13.6835 39.7887 6.10567 32.2107 6.10567 22.8963C6.10567 13.5819 13.6835 6.00391 22.998 6.00391Z" fill="#3AA97C"/>
<path d="M22.9968 36.7367C30.6401 36.7367 36.8363 30.5405 36.8363 22.8971C36.8363 15.2538 30.6401 9.05762 22.9968 9.05762C15.3534 9.05762 9.15723 15.2538 9.15723 22.8971C9.15723 30.5405 15.3534 36.7367 22.9968 36.7367Z" fill="#3AA97C"/>
</svg>
