<svg width="15" height="18" viewBox="0 0 15 18" fill="none" xmlns="http://www.w3.org/2000/svg">
<path d="M7.21107 0C3.23487 0 0 3.2349 0 7.21107V7.41041C0 9.42135 1.15291 11.7647 3.42682 14.3753C5.07523 16.2679 6.70061 17.5875 6.76895 17.6427L7.21107 18L7.6532 17.6428C7.72158 17.5875 9.34696 16.2679 10.9953 14.3754C13.2692 11.7647 14.4221 9.42138 14.4221 7.41045V7.21111C14.4221 3.2349 11.1873 0 7.21107 0ZM13.0151 7.41045C13.0151 10.8088 8.63638 14.9226 7.21107 16.1715C5.78538 14.9222 1.40702 10.8086 1.40702 7.41045V7.21111C1.40702 4.01077 4.01073 1.40706 7.21107 1.40706C10.4114 1.40706 13.0151 4.01077 13.0151 7.21111V7.41045Z" fill="#3AA97C"/>
<path d="M7.20986 3.86938C5.36726 3.86938 3.86816 5.36848 3.86816 7.21108C3.86816 9.05369 5.36726 10.5528 7.20986 10.5528C9.05247 10.5528 10.5516 9.05369 10.5516 7.21108C10.5516 5.36848 9.0525 3.86938 7.20986 3.86938ZM7.20986 9.14576C6.14308 9.14576 5.27518 8.27786 5.27518 7.21108C5.27518 6.1443 6.14308 5.2764 7.20986 5.2764C8.27664 5.2764 9.14454 6.1443 9.14454 7.21108C9.14454 8.27786 8.27664 9.14576 7.20986 9.14576Z" fill="#3AA97C"/>
</svg>
